<mxfile host="app.diagrams.net" modified="2022-03-17T12:41:37.324Z" agent="5.0 (Windows NT 10.0; Win64; x64) AppleWebKit/537.36 (KHTML, like Gecko) Chrome/99.0.4844.51 Safari/537.36" etag="5YP248KFPWmuaocwAwAA" version="17.1.3" type="github">
  <diagram id="1dXitBa1tYRR6ALUjFQJ" name="Page-1">
    <mxGraphModel dx="1888" dy="547" grid="1" gridSize="10" guides="1" tooltips="1" connect="1" arrows="1" fold="1" page="1" pageScale="1" pageWidth="850" pageHeight="1100" math="0" shadow="0">
      <root>
        <mxCell id="0" />
        <mxCell id="1" parent="0" />
        <mxCell id="5cHCx3r3s3_XpyU0GuuB-34" value="" style="shape=image;verticalLabelPosition=bottom;labelBackgroundColor=default;verticalAlign=top;aspect=fixed;imageAspect=0;image=https://uploads.sitepoint.com/wp-content/uploads/2016/10/1477673935anime-logo.png;" vertex="1" parent="1">
          <mxGeometry x="-265.51" y="824" width="105.51" height="28" as="geometry" />
        </mxCell>
        <mxCell id="5cHCx3r3s3_XpyU0GuuB-35" value="" style="shape=image;verticalLabelPosition=bottom;labelBackgroundColor=default;verticalAlign=top;aspect=fixed;imageAspect=0;image=https://uploads.sitepoint.com/wp-content/uploads/2016/10/1477673935anime-logo.png;" vertex="1" parent="1">
          <mxGeometry x="14.490000000000009" y="824" width="105.51" height="28" as="geometry" />
        </mxCell>
        <mxCell id="5cHCx3r3s3_XpyU0GuuB-33" value="" style="shape=image;verticalLabelPosition=bottom;labelBackgroundColor=default;verticalAlign=top;aspect=fixed;imageAspect=0;image=https://uploads.sitepoint.com/wp-content/uploads/2016/10/1477673935anime-logo.png;" vertex="1" parent="1">
          <mxGeometry x="-410.51" y="824" width="105.51" height="28" as="geometry" />
        </mxCell>
        <mxCell id="qF_yDrrP_VQrt9cK3OHo-15" value="" style="shape=image;verticalLabelPosition=bottom;labelBackgroundColor=default;verticalAlign=top;aspect=fixed;imageAspect=0;image=https://www.chartjs.org/img/chartjs-logo.svg;" parent="1" vertex="1">
          <mxGeometry x="-452" y="104" width="92" height="92" as="geometry" />
        </mxCell>
        <mxCell id="qF_yDrrP_VQrt9cK3OHo-13" value="" style="shape=image;verticalLabelPosition=bottom;labelBackgroundColor=default;verticalAlign=top;aspect=fixed;imageAspect=0;image=https://zzz.dog/img/zdog-thumbnail.png;" parent="1" vertex="1">
          <mxGeometry x="-846.66" y="110" width="106.66" height="80" as="geometry" />
        </mxCell>
        <mxCell id="qF_yDrrP_VQrt9cK3OHo-7" value="" style="rounded=0;whiteSpace=wrap;html=1;fillColor=#f8cecc;strokeColor=#b85450;" parent="1" vertex="1">
          <mxGeometry x="-760" y="310" width="570" height="200" as="geometry" />
        </mxCell>
        <mxCell id="qF_yDrrP_VQrt9cK3OHo-6" value="E-commerce&amp;nbsp;" style="rounded=0;whiteSpace=wrap;html=1;fillColor=#dae8fc;strokeColor=#6c8ebf;" parent="1" vertex="1">
          <mxGeometry x="-740" y="40" width="200" height="130" as="geometry" />
        </mxCell>
        <UserObject label="" link="https://th.bing.com/th/id/OIP.QvJHAjIrrxROZa2Gb8kqxgHaHa?pid=ImgDet&amp;rs=1" id="qF_yDrrP_VQrt9cK3OHo-1">
          <mxCell style="shape=image;verticalLabelPosition=bottom;labelBackgroundColor=default;verticalAlign=top;aspect=fixed;imageAspect=0;image=https://upload.wikimedia.org/wikipedia/commons/thumb/1/1b/Svelte_Logo.svg/1200px-Svelte_Logo.svg.png;" parent="1" vertex="1">
            <mxGeometry x="-780" y="90" width="83.07" height="100" as="geometry" />
          </mxCell>
        </UserObject>
        <mxCell id="qF_yDrrP_VQrt9cK3OHo-4" value="" style="shape=image;verticalLabelPosition=bottom;labelBackgroundColor=default;verticalAlign=top;aspect=fixed;imageAspect=0;image=https://cdn4.iconfinder.com/data/icons/google-i-o-2016/512/google_firebase-2-512.png;" parent="1" vertex="1">
          <mxGeometry x="-830" y="230" width="162" height="162" as="geometry" />
        </mxCell>
        <mxCell id="qF_yDrrP_VQrt9cK3OHo-8" value="/allOrders" style="rounded=0;whiteSpace=wrap;html=1;fillColor=#ffe6cc;strokeColor=#d79b00;" parent="1" vertex="1">
          <mxGeometry x="-720" y="360" width="100" height="50" as="geometry" />
        </mxCell>
        <mxCell id="qF_yDrrP_VQrt9cK3OHo-9" value="/routes" style="rounded=0;whiteSpace=wrap;html=1;fillColor=#ffe6cc;strokeColor=#d79b00;" parent="1" vertex="1">
          <mxGeometry x="-600" y="360" width="100" height="50" as="geometry" />
        </mxCell>
        <mxCell id="qF_yDrrP_VQrt9cK3OHo-10" value="/schedule" style="rounded=0;whiteSpace=wrap;html=1;fillColor=#ffe6cc;strokeColor=#d79b00;" parent="1" vertex="1">
          <mxGeometry x="-484" y="360" width="100" height="50" as="geometry" />
        </mxCell>
        <mxCell id="qF_yDrrP_VQrt9cK3OHo-11" value="/BI" style="rounded=0;whiteSpace=wrap;html=1;fillColor=#ffe6cc;strokeColor=#d79b00;" parent="1" vertex="1">
          <mxGeometry x="-360" y="360" width="100" height="50" as="geometry" />
        </mxCell>
        <mxCell id="qF_yDrrP_VQrt9cK3OHo-12" value="BI" style="rounded=0;whiteSpace=wrap;html=1;fillColor=#dae8fc;strokeColor=#6c8ebf;" parent="1" vertex="1">
          <mxGeometry x="-360" y="40" width="200" height="130" as="geometry" />
        </mxCell>
        <UserObject label="" link="https://th.bing.com/th/id/OIP.QvJHAjIrrxROZa2Gb8kqxgHaHa?pid=ImgDet&amp;rs=1" id="qF_yDrrP_VQrt9cK3OHo-14">
          <mxCell style="shape=image;verticalLabelPosition=bottom;labelBackgroundColor=default;verticalAlign=top;aspect=fixed;imageAspect=0;image=https://upload.wikimedia.org/wikipedia/commons/thumb/1/1b/Svelte_Logo.svg/1200px-Svelte_Logo.svg.png;" parent="1" vertex="1">
            <mxGeometry x="-400" y="100" width="83.07" height="100" as="geometry" />
          </mxCell>
        </UserObject>
        <mxCell id="qF_yDrrP_VQrt9cK3OHo-16" value="/items" style="rounded=0;whiteSpace=wrap;html=1;fillColor=#ffe6cc;strokeColor=#d79b00;" parent="1" vertex="1">
          <mxGeometry x="-720" y="430" width="100" height="50" as="geometry" />
        </mxCell>
        <mxCell id="qF_yDrrP_VQrt9cK3OHo-17" value="" style="shape=image;verticalLabelPosition=bottom;labelBackgroundColor=default;verticalAlign=top;aspect=fixed;imageAspect=0;image=https://cdn.iconscout.com/icon/free/png-256/python-3521655-2945099.png;" parent="1" vertex="1">
          <mxGeometry x="-716" y="580" width="96" height="96" as="geometry" />
        </mxCell>
        <mxCell id="5cHCx3r3s3_XpyU0GuuB-1" value="" style="endArrow=classic;html=1;rounded=0;entryX=0.658;entryY=-0.035;entryDx=0;entryDy=0;entryPerimeter=0;" edge="1" parent="1" source="qF_yDrrP_VQrt9cK3OHo-7" target="qF_yDrrP_VQrt9cK3OHo-17">
          <mxGeometry width="50" height="50" relative="1" as="geometry">
            <mxPoint x="-680" y="570" as="sourcePoint" />
            <mxPoint x="-580" y="570" as="targetPoint" />
            <Array as="points" />
          </mxGeometry>
        </mxCell>
        <mxCell id="5cHCx3r3s3_XpyU0GuuB-2" value="" style="endArrow=classic;html=1;rounded=0;exitX=0.433;exitY=0.99;exitDx=0;exitDy=0;exitPerimeter=0;" edge="1" parent="1" source="qF_yDrrP_VQrt9cK3OHo-17" target="5cHCx3r3s3_XpyU0GuuB-3">
          <mxGeometry width="50" height="50" relative="1" as="geometry">
            <mxPoint x="-470" y="780" as="sourcePoint" />
            <mxPoint x="-674" y="760" as="targetPoint" />
          </mxGeometry>
        </mxCell>
        <mxCell id="5cHCx3r3s3_XpyU0GuuB-3" value="" style="rounded=0;whiteSpace=wrap;html=1;fillColor=#f8cecc;strokeColor=#b85450;" vertex="1" parent="1">
          <mxGeometry x="-800" y="750" width="330" height="90" as="geometry" />
        </mxCell>
        <mxCell id="5cHCx3r3s3_XpyU0GuuB-6" value="orders.json" style="rounded=0;whiteSpace=wrap;html=1;fillColor=#ffe6cc;strokeColor=#d79b00;" vertex="1" parent="1">
          <mxGeometry x="-716" y="765" width="100" height="50" as="geometry" />
        </mxCell>
        <mxCell id="5cHCx3r3s3_XpyU0GuuB-7" value="/barcodes.json" style="rounded=0;whiteSpace=wrap;html=1;fillColor=#ffe6cc;strokeColor=#d79b00;" vertex="1" parent="1">
          <mxGeometry x="-590" y="765" width="100" height="50" as="geometry" />
        </mxCell>
        <mxCell id="5cHCx3r3s3_XpyU0GuuB-9" style="edgeStyle=orthogonalEdgeStyle;rounded=0;orthogonalLoop=1;jettySize=auto;html=1;exitX=0.5;exitY=1;exitDx=0;exitDy=0;" edge="1" parent="1" source="5cHCx3r3s3_XpyU0GuuB-3" target="5cHCx3r3s3_XpyU0GuuB-3">
          <mxGeometry relative="1" as="geometry" />
        </mxCell>
        <mxCell id="5cHCx3r3s3_XpyU0GuuB-11" value="" style="shape=image;verticalLabelPosition=bottom;labelBackgroundColor=default;verticalAlign=top;aspect=fixed;imageAspect=0;image=https://cdn-icons-png.flaticon.com/512/136/136443.png;" vertex="1" parent="1">
          <mxGeometry x="-790" y="760" width="60" height="60" as="geometry" />
        </mxCell>
        <mxCell id="5cHCx3r3s3_XpyU0GuuB-12" value="" style="endArrow=classic;html=1;rounded=0;exitX=0.5;exitY=1;exitDx=0;exitDy=0;" edge="1" parent="1" source="5cHCx3r3s3_XpyU0GuuB-3">
          <mxGeometry width="50" height="50" relative="1" as="geometry">
            <mxPoint x="-470" y="710" as="sourcePoint" />
            <mxPoint x="-640" y="890" as="targetPoint" />
          </mxGeometry>
        </mxCell>
        <mxCell id="5cHCx3r3s3_XpyU0GuuB-13" value="" style="rounded=0;whiteSpace=wrap;html=1;fillColor=#f8cecc;strokeColor=#b85450;" vertex="1" parent="1">
          <mxGeometry x="-798.46" y="890" width="208.46" height="70" as="geometry" />
        </mxCell>
        <mxCell id="5cHCx3r3s3_XpyU0GuuB-14" value="" style="shape=image;verticalLabelPosition=bottom;labelBackgroundColor=default;verticalAlign=top;aspect=fixed;imageAspect=0;image=https://upload.wikimedia.org/wikipedia/commons/thumb/9/97/Sqlite-square-icon.svg/1200px-Sqlite-square-icon.svg.png;" vertex="1" parent="1">
          <mxGeometry x="-790" y="895" width="60" height="60" as="geometry" />
        </mxCell>
        <mxCell id="5cHCx3r3s3_XpyU0GuuB-15" value="cutting_machine.db" style="rounded=0;whiteSpace=wrap;html=1;fillColor=#ffe6cc;strokeColor=#d79b00;" vertex="1" parent="1">
          <mxGeometry x="-718" y="900" width="118" height="50" as="geometry" />
        </mxCell>
        <mxCell id="5cHCx3r3s3_XpyU0GuuB-17" value="" style="shape=image;verticalLabelPosition=bottom;labelBackgroundColor=default;verticalAlign=top;aspect=fixed;imageAspect=0;image=https://cdn.iconscout.com/icon/free/png-256/python-3521655-2945099.png;" vertex="1" parent="1">
          <mxGeometry x="-170" y="554" width="96" height="96" as="geometry" />
        </mxCell>
        <mxCell id="5cHCx3r3s3_XpyU0GuuB-16" value="" style="shape=image;verticalLabelPosition=bottom;labelBackgroundColor=default;verticalAlign=top;aspect=fixed;imageAspect=0;image=https://cdn-icons-png.flaticon.com/512/468/468369.png;" vertex="1" parent="1">
          <mxGeometry x="-180" y="600.5" width="55" height="55" as="geometry" />
        </mxCell>
        <mxCell id="5cHCx3r3s3_XpyU0GuuB-18" value="" style="endArrow=classic;html=1;rounded=0;exitX=1;exitY=0.5;exitDx=0;exitDy=0;entryX=0;entryY=0.5;entryDx=0;entryDy=0;" edge="1" parent="1" source="qF_yDrrP_VQrt9cK3OHo-17" target="5cHCx3r3s3_XpyU0GuuB-17">
          <mxGeometry width="50" height="50" relative="1" as="geometry">
            <mxPoint x="-470" y="780" as="sourcePoint" />
            <mxPoint x="-420" y="730" as="targetPoint" />
          </mxGeometry>
        </mxCell>
        <mxCell id="5cHCx3r3s3_XpyU0GuuB-20" value="Разкрой" style="rounded=0;whiteSpace=wrap;html=1;" vertex="1" parent="1">
          <mxGeometry x="-425" y="765" width="120" height="60" as="geometry" />
        </mxCell>
        <mxCell id="5cHCx3r3s3_XpyU0GuuB-21" value="Кантиране" style="rounded=0;whiteSpace=wrap;html=1;" vertex="1" parent="1">
          <mxGeometry y="765" width="120" height="60" as="geometry" />
        </mxCell>
        <mxCell id="5cHCx3r3s3_XpyU0GuuB-22" value="Дупчене" style="rounded=0;whiteSpace=wrap;html=1;" vertex="1" parent="1">
          <mxGeometry x="-280" y="765" width="120" height="60" as="geometry" />
        </mxCell>
        <mxCell id="5cHCx3r3s3_XpyU0GuuB-23" value="Умен Слад" style="rounded=0;whiteSpace=wrap;html=1;" vertex="1" parent="1">
          <mxGeometry x="-140" y="765" width="120" height="60" as="geometry" />
        </mxCell>
        <UserObject label="" link="https://th.bing.com/th/id/OIP.QvJHAjIrrxROZa2Gb8kqxgHaHa?pid=ImgDet&amp;rs=1" id="5cHCx3r3s3_XpyU0GuuB-25">
          <mxCell style="shape=image;verticalLabelPosition=bottom;labelBackgroundColor=default;verticalAlign=top;aspect=fixed;imageAspect=0;image=https://upload.wikimedia.org/wikipedia/commons/thumb/1/1b/Svelte_Logo.svg/1200px-Svelte_Logo.svg.png;" vertex="1" parent="1">
            <mxGeometry x="-340" y="800" width="43.2" height="52" as="geometry" />
          </mxCell>
        </UserObject>
        <UserObject label="" link="https://th.bing.com/th/id/OIP.QvJHAjIrrxROZa2Gb8kqxgHaHa?pid=ImgDet&amp;rs=1" id="5cHCx3r3s3_XpyU0GuuB-26">
          <mxCell style="shape=image;verticalLabelPosition=bottom;labelBackgroundColor=default;verticalAlign=top;aspect=fixed;imageAspect=0;image=https://upload.wikimedia.org/wikipedia/commons/thumb/1/1b/Svelte_Logo.svg/1200px-Svelte_Logo.svg.png;" vertex="1" parent="1">
            <mxGeometry x="-190" y="800" width="43.2" height="52" as="geometry" />
          </mxCell>
        </UserObject>
        <UserObject label="" link="https://th.bing.com/th/id/OIP.QvJHAjIrrxROZa2Gb8kqxgHaHa?pid=ImgDet&amp;rs=1" id="5cHCx3r3s3_XpyU0GuuB-27">
          <mxCell style="shape=image;verticalLabelPosition=bottom;labelBackgroundColor=default;verticalAlign=top;aspect=fixed;imageAspect=0;image=https://upload.wikimedia.org/wikipedia/commons/thumb/1/1b/Svelte_Logo.svg/1200px-Svelte_Logo.svg.png;" vertex="1" parent="1">
            <mxGeometry x="-50" y="801" width="43.2" height="52" as="geometry" />
          </mxCell>
        </UserObject>
        <UserObject label="" link="https://th.bing.com/th/id/OIP.QvJHAjIrrxROZa2Gb8kqxgHaHa?pid=ImgDet&amp;rs=1" id="5cHCx3r3s3_XpyU0GuuB-28">
          <mxCell style="shape=image;verticalLabelPosition=bottom;labelBackgroundColor=default;verticalAlign=top;aspect=fixed;imageAspect=0;image=https://upload.wikimedia.org/wikipedia/commons/thumb/1/1b/Svelte_Logo.svg/1200px-Svelte_Logo.svg.png;" vertex="1" parent="1">
            <mxGeometry x="90" y="810" width="43.2" height="52" as="geometry" />
          </mxCell>
        </UserObject>
        <mxCell id="5cHCx3r3s3_XpyU0GuuB-29" value="" style="endArrow=classic;html=1;rounded=0;" edge="1" parent="1">
          <mxGeometry width="50" height="50" relative="1" as="geometry">
            <mxPoint x="-122" y="650" as="sourcePoint" />
            <mxPoint x="-100" y="760" as="targetPoint" />
          </mxGeometry>
        </mxCell>
        <mxCell id="5cHCx3r3s3_XpyU0GuuB-30" value="" style="endArrow=classic;html=1;rounded=0;exitX=0.5;exitY=1;exitDx=0;exitDy=0;entryX=0.5;entryY=0;entryDx=0;entryDy=0;" edge="1" parent="1" source="5cHCx3r3s3_XpyU0GuuB-17" target="5cHCx3r3s3_XpyU0GuuB-21">
          <mxGeometry width="50" height="50" relative="1" as="geometry">
            <mxPoint x="-103.55199999999991" y="659.424" as="sourcePoint" />
            <mxPoint x="-90" y="770" as="targetPoint" />
          </mxGeometry>
        </mxCell>
        <mxCell id="5cHCx3r3s3_XpyU0GuuB-31" value="" style="endArrow=classic;html=1;rounded=0;exitX=0.5;exitY=1;exitDx=0;exitDy=0;entryX=0.5;entryY=0;entryDx=0;entryDy=0;" edge="1" parent="1" source="5cHCx3r3s3_XpyU0GuuB-17" target="5cHCx3r3s3_XpyU0GuuB-22">
          <mxGeometry width="50" height="50" relative="1" as="geometry">
            <mxPoint x="-250" y="720" as="sourcePoint" />
            <mxPoint x="-200" y="670" as="targetPoint" />
          </mxGeometry>
        </mxCell>
        <mxCell id="5cHCx3r3s3_XpyU0GuuB-32" value="" style="endArrow=classic;html=1;rounded=0;entryX=0.5;entryY=0;entryDx=0;entryDy=0;" edge="1" parent="1" target="5cHCx3r3s3_XpyU0GuuB-20">
          <mxGeometry width="50" height="50" relative="1" as="geometry">
            <mxPoint x="-120" y="650" as="sourcePoint" />
            <mxPoint x="-350" y="670" as="targetPoint" />
          </mxGeometry>
        </mxCell>
        <mxCell id="5cHCx3r3s3_XpyU0GuuB-36" value="" style="endArrow=classic;html=1;rounded=0;entryX=1;entryY=0.75;entryDx=0;entryDy=0;" edge="1" parent="1" source="qF_yDrrP_VQrt9cK3OHo-6" target="qF_yDrrP_VQrt9cK3OHo-4">
          <mxGeometry width="50" height="50" relative="1" as="geometry">
            <mxPoint x="-640" y="220" as="sourcePoint" />
            <mxPoint x="-640" y="240.71067811865476" as="targetPoint" />
          </mxGeometry>
        </mxCell>
        <mxCell id="5cHCx3r3s3_XpyU0GuuB-37" value="" style="endArrow=classic;html=1;rounded=0;exitX=0.5;exitY=1;exitDx=0;exitDy=0;" edge="1" parent="1" source="qF_yDrrP_VQrt9cK3OHo-6" target="qF_yDrrP_VQrt9cK3OHo-9">
          <mxGeometry width="50" height="50" relative="1" as="geometry">
            <mxPoint x="-650" y="210" as="sourcePoint" />
            <mxPoint x="-600" y="160" as="targetPoint" />
          </mxGeometry>
        </mxCell>
        <mxCell id="5cHCx3r3s3_XpyU0GuuB-38" value="" style="endArrow=classic;html=1;rounded=0;exitX=0.5;exitY=1;exitDx=0;exitDy=0;" edge="1" parent="1" source="qF_yDrrP_VQrt9cK3OHo-6" target="qF_yDrrP_VQrt9cK3OHo-16">
          <mxGeometry width="50" height="50" relative="1" as="geometry">
            <mxPoint x="-650" y="210" as="sourcePoint" />
            <mxPoint x="-600" y="160" as="targetPoint" />
          </mxGeometry>
        </mxCell>
        <mxCell id="5cHCx3r3s3_XpyU0GuuB-40" value="" style="endArrow=classic;html=1;rounded=0;exitX=0.5;exitY=1;exitDx=0;exitDy=0;entryX=0.5;entryY=1;entryDx=0;entryDy=0;" edge="1" parent="1" source="qF_yDrrP_VQrt9cK3OHo-10" target="qF_yDrrP_VQrt9cK3OHo-11">
          <mxGeometry width="50" height="50" relative="1" as="geometry">
            <mxPoint x="-330" y="270" as="sourcePoint" />
            <mxPoint x="-280" y="220" as="targetPoint" />
            <Array as="points">
              <mxPoint x="-370" y="430" />
            </Array>
          </mxGeometry>
        </mxCell>
        <mxCell id="5cHCx3r3s3_XpyU0GuuB-41" value="" style="endArrow=classic;html=1;rounded=0;entryX=0.5;entryY=1;entryDx=0;entryDy=0;" edge="1" parent="1" source="qF_yDrrP_VQrt9cK3OHo-11" target="qF_yDrrP_VQrt9cK3OHo-12">
          <mxGeometry width="50" height="50" relative="1" as="geometry">
            <mxPoint x="-260" y="220" as="sourcePoint" />
            <mxPoint x="-260" y="240.71067811865476" as="targetPoint" />
          </mxGeometry>
        </mxCell>
        <mxCell id="5cHCx3r3s3_XpyU0GuuB-44" value="" style="endArrow=classic;html=1;rounded=0;exitX=0.5;exitY=1;exitDx=0;exitDy=0;entryX=1;entryY=0.5;entryDx=0;entryDy=0;" edge="1" parent="1" source="5cHCx3r3s3_XpyU0GuuB-20" target="5cHCx3r3s3_XpyU0GuuB-15">
          <mxGeometry width="50" height="50" relative="1" as="geometry">
            <mxPoint x="-510" y="1030" as="sourcePoint" />
            <mxPoint x="-460" y="980" as="targetPoint" />
          </mxGeometry>
        </mxCell>
        <mxCell id="5cHCx3r3s3_XpyU0GuuB-45" value="" style="endArrow=classic;html=1;rounded=0;exitX=0;exitY=0.5;exitDx=0;exitDy=0;entryX=1;entryY=0.5;entryDx=0;entryDy=0;" edge="1" parent="1" source="5cHCx3r3s3_XpyU0GuuB-22" target="5cHCx3r3s3_XpyU0GuuB-7">
          <mxGeometry width="50" height="50" relative="1" as="geometry">
            <mxPoint x="-290" y="840" as="sourcePoint" />
            <mxPoint x="-240" y="790" as="targetPoint" />
          </mxGeometry>
        </mxCell>
        <mxCell id="5cHCx3r3s3_XpyU0GuuB-46" value="" style="endArrow=classic;html=1;rounded=0;entryX=1;entryY=0.75;entryDx=0;entryDy=0;" edge="1" parent="1" source="5cHCx3r3s3_XpyU0GuuB-21" target="5cHCx3r3s3_XpyU0GuuB-7">
          <mxGeometry width="50" height="50" relative="1" as="geometry">
            <mxPoint x="-170" y="940" as="sourcePoint" />
            <mxPoint x="-120" y="890" as="targetPoint" />
          </mxGeometry>
        </mxCell>
        <mxCell id="5cHCx3r3s3_XpyU0GuuB-47" value="" style="endArrow=classic;html=1;rounded=0;exitX=0.5;exitY=0;exitDx=0;exitDy=0;entryX=0.416;entryY=1.044;entryDx=0;entryDy=0;entryPerimeter=0;" edge="1" parent="1" source="5cHCx3r3s3_XpyU0GuuB-23" target="5cHCx3r3s3_XpyU0GuuB-48">
          <mxGeometry width="50" height="50" relative="1" as="geometry">
            <mxPoint x="-90" y="760" as="sourcePoint" />
            <mxPoint x="-40" y="710" as="targetPoint" />
          </mxGeometry>
        </mxCell>
        <mxCell id="5cHCx3r3s3_XpyU0GuuB-48" value="/smartStorage" style="rounded=0;whiteSpace=wrap;html=1;fillColor=#ffe6cc;strokeColor=#d79b00;" vertex="1" parent="1">
          <mxGeometry x="-600" y="430" width="100" height="50" as="geometry" />
        </mxCell>
        <mxCell id="5cHCx3r3s3_XpyU0GuuB-49" value="" style="shape=image;verticalLabelPosition=bottom;labelBackgroundColor=default;verticalAlign=top;aspect=fixed;imageAspect=0;image=http://simpleicon.com/wp-content/uploads/iphone.svg;" vertex="1" parent="1">
          <mxGeometry x="-243.5" y="920" width="182" height="182" as="geometry" />
        </mxCell>
        <mxCell id="5cHCx3r3s3_XpyU0GuuB-50" value="" style="shape=image;verticalLabelPosition=bottom;labelBackgroundColor=default;verticalAlign=top;aspect=fixed;imageAspect=0;image=https://www.svgrepo.com/show/13984/product-barcode.svg;" vertex="1" parent="1">
          <mxGeometry x="-177.87" y="1005.63" width="50.75" height="50.75" as="geometry" />
        </mxCell>
        <mxCell id="5cHCx3r3s3_XpyU0GuuB-51" value="" style="endArrow=classic;html=1;rounded=0;entryX=0.5;entryY=1;entryDx=0;entryDy=0;" edge="1" parent="1" target="5cHCx3r3s3_XpyU0GuuB-22">
          <mxGeometry width="50" height="50" relative="1" as="geometry">
            <mxPoint x="-150" y="940" as="sourcePoint" />
            <mxPoint x="-100" y="890" as="targetPoint" />
          </mxGeometry>
        </mxCell>
        <mxCell id="5cHCx3r3s3_XpyU0GuuB-52" value="" style="endArrow=classic;html=1;rounded=0;entryX=0.5;entryY=1;entryDx=0;entryDy=0;" edge="1" parent="1" target="5cHCx3r3s3_XpyU0GuuB-35">
          <mxGeometry width="50" height="50" relative="1" as="geometry">
            <mxPoint x="-150" y="940" as="sourcePoint" />
            <mxPoint x="-100" y="890" as="targetPoint" />
          </mxGeometry>
        </mxCell>
        <mxCell id="5cHCx3r3s3_XpyU0GuuB-53" value="" style="endArrow=classic;html=1;rounded=0;entryX=0.5;entryY=0;entryDx=0;entryDy=0;" edge="1" parent="1" target="5cHCx3r3s3_XpyU0GuuB-33">
          <mxGeometry width="50" height="50" relative="1" as="geometry">
            <mxPoint x="-150" y="940" as="sourcePoint" />
            <mxPoint x="-290" y="1050" as="targetPoint" />
          </mxGeometry>
        </mxCell>
      </root>
    </mxGraphModel>
  </diagram>
</mxfile>
